<?xml version="1.0" encoding="UTF-8"?>
<svg width="105px" height="105px" viewBox="0 0 105 105" version="1.1" xmlns="http://www.w3.org/2000/svg" xmlns:xlink="http://www.w3.org/1999/xlink">
    <!-- Generator: Sketch 50.2 (55047) - http://www.bohemiancoding.com/sketch -->
    <title>Profile</title>
    <desc>Created with Sketch.</desc>
    <defs>
        <circle id="path-1" cx="49.4575791" cy="49.4575791" r="49.4575791"></circle>
    </defs>
    <g id="Profile" stroke="none" stroke-width="1" fill="none" fill-rule="evenodd">
        <g id="Group" transform="translate(3.000000, 3.000000)">
            <mask id="mask-2" fill="white">
                <use xlink:href="#path-1"></use>
            </mask>
            <use id="Mask" fill="#00D95F" fill-rule="nonzero" xlink:href="#path-1"></use>
            <g mask="url(#mask-2)" fill-rule="nonzero" id="Shape">
                <g transform="translate(21.179707, 7.261614)">
                    <path d="M6.17237164,30.1356968 L49.0414016,0 C49.0414016,0 51.02928,2.7396088 51.8071454,6.849022 C53.4190555,15.3649247 50.4242735,30.1356968 50.4242735,30.1356968 L6.17237164,30.1356968 Z" fill="#141720"></path>
                    <path d="M29.6589242,0 C29.6589242,0 14.3634627,0 10.3031658,6.84782343 L10.301956,6.849022 C10.301956,6.849022 3.38875306,6.7920039 3.38875306,15.0678484 C3.38875306,18.9248752 6.15403423,30.1356968 6.15403423,30.1356968 C6.15403423,30.1356968 35.5930448,17.1795731 49.0158924,0 C49.0158924,0 38.646088,0.3424511 31.0415648,2.7396088 L29.6589242,0 Z" fill="#141720"></path>
                    <path d="M42.601467,59.7682249 C39.6022617,58.8117608 32.1980072,58.3613226 28.25978,58.3349633 C24.3215527,58.3613226 16.9172982,58.8117608 13.9180929,59.7682249 L28.25978,72.8581907 L42.601467,59.7682249 Z" fill="#017433"></path>
                    <path d="M56.3645564,86.644636 L54.5436647,72.0749788 C54.2687147,69.875826 52.7556806,68.0298901 50.653545,67.3290316 L45.4489163,65.5938806 C45.4627627,65.5100725 45.6458229,64.2315496 44.0995214,63.2004944 C42.8407576,62.3611547 44.4891988,60.8324665 42.5710225,59.8433154 L37.7454615,64.1869479 C37.175781,63.6544249 36.8310595,62.9008716 36.8310595,62.0856311 L36.8310595,57.4452533 L43.0279538,54.8628493 C46.244455,53.5224596 48.3397573,50.3792969 48.3397573,46.8942476 L48.3397573,28.0104526 C48.3397573,24.037482 45.1193,20.8166259 41.1468212,20.8166259 L15.2522512,20.8166259 C11.2797725,20.8166259 8.05931514,24.037482 8.05931514,28.0104526 L8.05931514,46.8942476 C8.05931514,50.379117 10.1544376,53.5222797 13.3709388,54.8628493 L19.5680129,57.4452533 L19.5680129,62.0854513 C19.5680129,62.9039289 19.2204143,63.6603598 18.6465978,64.1932425 L13.8133044,59.8433154 C11.8951281,60.8324665 13.5435693,62.3611547 12.2848054,63.2004944 C10.6859956,64.2664397 10.9359501,65.5972976 10.9361299,65.5983767 L5.74498795,67.3290316 C3.64267255,68.0298901 2.12963844,69.875826 1.85486828,72.0749788 L0.0339765108,86.644636 C-0.288087203,89.2207453 1.7205402,91.4963325 4.31647084,91.4963325 L4.3569311,91.4963325 L52.0417817,91.4963325 L52.0822419,91.4963325 C54.6779927,91.4963325 56.6866201,89.2207453 56.3645564,86.644636 Z" fill="#FDC88E"></path>
                    <path d="M37.0342298,57.3331709 L19.7209042,53.4938875 L19.7209042,61.976339 C19.7209042,63.0127332 19.1463182,63.9254942 18.2750611,64.4344233 C30.3752723,66.5478828 37.0342298,57.3331709 37.0342298,57.3331709 Z" fill="#FDC88E"></path>
                    <path d="M43.0962973,54.8139474 L33.7955415,58.6820997 C32.0413269,59.4115873 30.1599092,59.7872861 28.2596,59.7872861 C26.3592908,59.7872861 24.4776933,59.4115873 22.7234787,58.6820997 L13.4232626,54.814127 C10.2050434,53.4756554 8.10880196,50.3369908 8.10880196,46.8569288 L8.10880196,28.0001577 C8.10880196,24.0328727 11.3309793,20.8166259 15.3055798,20.8166259 L41.2139801,20.8166259 C45.1885806,20.8166259 48.4107579,24.0328727 48.4107579,28.0001577 L48.4107579,46.8567492 C48.4109379,50.3368112 46.3146964,53.4754758 43.0962973,54.8139474 Z" fill="#FFE1B2"></path>
                    <path d="M56.4827911,86.3859505 L54.5877906,71.8425097 C54.3016883,69.6473411 52.7792862,67.8112676 50.6735303,67.121999 L42.5378678,64.4586955 C41.8890576,64.2463641 41.1677778,64.5120478 40.8446315,65.1127551 C38.4308346,69.6002761 28.8040596,72.6900387 28.2471402,72.6929129 C27.6902209,72.6957871 18.0325159,69.7039269 15.5730434,65.2411959 C15.243783,64.643722 14.5198058,64.3854035 13.8733333,64.6043814 L5.76518414,67.3501385 C3.66644145,68.0607839 2.16274113,69.9123062 1.89911704,72.1101693 L0.152292735,86.6721129 C-0.156647368,89.2468552 1.8635116,91.5095674 4.45947163,91.4962742 L52.225244,91.2535842 C54.8210242,91.2404706 56.8178059,88.9574594 56.4827911,86.3859505 Z" fill="#008D3E"></path>
                    <path d="M3.04666866,69.2273839 C2.40949232,70.0360881 1.98291424,71.013115 1.85034856,72.0764613 L0.0338937208,86.6450063 C-0.287385226,89.2210988 1.71634779,91.4963325 4.30595297,91.4963325 L12.3447433,91.4963325 L12.3447433,82.133023 C12.3447433,80.7488565 11.8471286,79.4112666 10.9432065,78.3650043 L3.04666866,69.2273839 Z" fill="#017433"></path>
                    <path d="M53.3518644,69.2273839 C53.9890407,70.0360881 54.4156188,71.013115 54.5481844,72.0764613 L56.3646393,86.6450063 C56.6859182,89.2210988 54.6821852,91.4963325 52.09258,91.4963325 L44.0537897,91.4963325 L44.0537897,82.133023 C44.0537897,80.7488565 44.5514044,79.4112666 45.4553265,78.3650043 L53.3518644,69.2273839 Z" fill="#017433"></path>
                    <path d="M44.145023,63.1478595 C42.888002,62.3076711 44.5341607,60.7774373 42.6186404,59.7872861 L28.2598697,72.7427855 L13.9009195,59.7872861 C11.9853992,60.7774373 13.6315579,62.3076711 12.3745369,63.1478595 C10.7772225,64.2154226 11.0277288,65.5483463 11.0277288,65.5483463 L28.2526868,74.1824655 L28.2526868,74.1894866 L28.2598697,74.185886 L28.2670527,74.1894866 L28.2670527,74.1822855 L45.4918311,65.5481663 C45.4918311,65.5481663 45.7423374,64.2154226 44.145023,63.1478595 Z" fill="#008D3E"></path>
                    <path d="M14.4120254,26.9283631 C14.6749889,27.1643538 18.6009028,30.8494394 24.0005642,31.0741068 L24.0005642,28.1983633 C24.0005642,28.1983633 27.720391,32.9613135 36.9597517,34.1295844 L36.9597517,28.1983633 L39.8395712,33.9498504 L49.3789731,29.1869002 L49.3789731,22.6266102 C49.3789731,15.6780949 43.7381268,10.0452323 36.779763,10.0452323 L19.8608238,10.0452323 C12.90246,10.0452323 7.26161369,15.6780949 7.26161369,22.6266102 L7.26161369,33.4106485 L14.4114854,26.9280036 C14.4116654,26.9280036 14.4118454,26.9281833 14.4120254,26.9283631 Z" fill="#141720"></path>
                    <path d="M5.32518337,45.5061125 L3.87286064,45.5061125 C3.0708154,45.5061125 2.4205379,44.855835 2.4205379,44.0537897 L2.4205379,39.6968215 C2.4205379,38.8947763 3.0708154,38.2444988 3.87286064,38.2444988 L5.32518337,38.2444988 C6.12722861,38.2444988 6.77750611,38.8947763 6.77750611,39.6968215 L6.77750611,44.0537897 C6.77750611,44.8560165 6.12722861,45.5061125 5.32518337,45.5061125 Z" fill="#017433"></path>
                    <path d="M51.3154034,38.2444988 L52.7677262,38.2444988 C53.5697714,38.2444988 54.2200489,38.8947763 54.2200489,39.6968215 L54.2200489,44.0537897 C54.2200489,44.855835 53.5697714,45.5061125 52.7677262,45.5061125 L51.3154034,45.5061125 C50.5133582,45.5061125 49.8630807,44.855835 49.8630807,44.0537897 L49.8630807,39.6968215 C49.8630807,38.8947763 50.5133582,38.2444988 51.3154034,38.2444988 Z" fill="#017433"></path>
                    <path d="M51.1943765,38.2444988 L48.3199878,38.2444988 L48.3199878,22.4591338 C48.3199878,16.129023 43.1620768,10.9788683 36.8224328,10.9788683 L19.5761002,10.9788683 C13.2364562,10.9788683 8.07854523,16.129023 8.07854523,22.4591338 L8.07854523,38.2444988 L5.20415648,38.2444988 L5.20415648,22.4591338 C5.20415648,14.5468989 11.6512308,8.10880196 19.5761002,8.10880196 L36.8224328,8.10880196 C44.7473022,8.10880196 51.1943765,14.5468989 51.1943765,22.4591338 L51.1943765,38.2444988 Z" fill="#008D3E"></path>
                    <path d="M5.93031785,48.2897311 C4.72725,48.2897311 3.75183374,47.3233464 3.75183374,46.1314181 L3.75183374,37.4981663 C3.75183374,36.3062379 4.72725,35.3398533 5.93031785,35.3398533 C7.1333857,35.3398533 8.10880196,36.3062379 8.10880196,37.4981663 L8.10880196,46.1314181 C8.10880196,47.3235263 7.1333857,48.2897311 5.93031785,48.2897311 Z" fill="#008D3E"></path>
                    <path d="M50.5892421,35.3398533 C51.7923099,35.3398533 52.7677262,36.3062379 52.7677262,37.4981663 L52.7677262,46.1314181 C52.7677262,47.3233464 51.7923099,48.2897311 50.5892421,48.2897311 C49.3861742,48.2897311 48.4107579,47.3233464 48.4107579,46.1314181 L48.4107579,37.4981663 C48.4107579,36.3062379 49.3861742,35.3398533 50.5892421,35.3398533 Z" fill="#008D3E"></path>
                </g>
            </g>
        </g>
    </g>
</svg>