<svg version="1" xmlns="http://www.w3.org/2000/svg" width="933.333" height="933.333" viewBox="0 0 700.000000 700.000000"><path d="M322 78.1c-43.2 4.4-86.2 19.9-122.5 44.1-17.8 11.8-27.8 20-42.5 34.8-14.8 14.7-23 24.7-34.8 42.5C83 258.3 68.6 329.7 81.6 400.6c7.9 43.2 27.5 85.7 56 121.4 8.7 10.9 29.5 31.7 40.4 40.4 63.3 50.6 142.9 70.6 222.6 56 43.2-7.9 85.7-27.5 121.4-56 10.9-8.7 31.7-29.5 40.4-40.4 50.6-63.3 70.6-142.9 56-222.6-7.9-43.2-27.5-85.7-56-121.4-8.7-10.9-29.5-31.7-40.4-40.4-42.2-33.7-92.5-54.3-145.4-59.5-12.6-1.3-42.2-1.2-54.6 0zm35.7 98.2c6.5 1.7 134.9 75.6 139.8 80.5 1.8 1.9 4.4 5.5 5.7 8.1l2.3 4.6v80c0 79.5 0 80-2.1 84.5-1.2 2.5-3.8 6.1-5.7 8-3.7 3.6-129.4 77-137.6 80.3-3.5 1.5-6.3 1.8-11.8 1.5-7.1-.5-7.4-.6-28-12.8-25.7-15.1-30.3-18-30.3-19 0-.4 2.6-1.8 5.8-3.1 3.1-1.2 8.3-3.5 11.5-5.1l5.9-2.9 17.7 10.5c9.7 5.8 18.2 10.6 18.9 10.6 1.2 0 123.9-70.3 129.5-74.2l2.7-1.9V275l-3.7-2.4c-13.2-8.4-125.3-73.1-127.3-73.4-1.9-.3-18.4 8.7-64 34.8-33.8 19.3-63.2 36.2-65.2 37.6L218 274v75.4c0 59.1.3 75.6 1.3 76.4 2.3 1.9 31.2 18.4 37.2 21.3 11 5.3 20.9 3.6 26.9-4.4 2.1-2.8 2.1-3.5 2.4-78.9.2-53.7.6-76.5 1.3-77.5 1.5-1.7 20-1.8 21.7-.1 1.5 1.5 1.7 148 .2 157.4-2.8 17.4-12.7 27.1-30 29.6-9.8 1.5-19.1.2-28.1-3.8-10.6-4.6-42.9-23.4-46.5-27.1-1.9-1.8-4.4-5.3-5.6-7.6l-2.3-4.2v-81c0-91.2-.6-84.6 7.8-92.7 5.5-5.3 132.1-78.4 139.2-80.3 6.4-1.8 8-1.8 14.2-.2zM396 282c31.2 2.7 47.3 14.7 51.1 38 1.6 9.3.9 10-10.6 10-8.5 0-12.5-1.5-12.5-4.8-.1-3.2-3.8-9.9-7.5-13.5-6-5.8-14-7.9-30.5-7.9-17.1-.1-24.5 1.7-30.2 7.4-3.8 3.8-4.3 5.6-3.9 12.8.3 3.6 5.2 7.7 11.3 9.5 2.9.8 15.4 3.1 27.8 5 26.8 4.2 35.3 6.2 44 10.4 8 3.9 12.2 7.9 15.2 14.5 1.9 4.3 2.3 6.8 2.3 15.6 0 9.5-.3 11.1-2.9 16.7-8.2 17.8-28.3 26.5-61 26.4-39.9-.1-61.8-13.3-65.5-39.5-1.5-10.4-1.2-10.7 11.1-10.4 11.4.3 10.8-.1 13.3 9.3 2.1 7.5 6.8 12.3 15 15.5 5.2 2 8.3 2.4 22.8 2.8 24.8.7 35.8-2.3 40.6-10.8 2.3-4 2.8-11.7 1.1-15-2.9-5.5-15-9-42.9-12.5-21.9-2.8-29.9-4.5-38.7-8.5-14.7-6.6-21.6-20.7-18.5-37.9 3.7-20.7 22-31.9 55.6-34 1.1 0 7.2.4 13.5.9z"/></svg>