<?xml version="1.0" standalone="no"?>
<!DOCTYPE svg PUBLIC "-//W3C//DTD SVG 20010904//EN"
 "http://www.w3.org/TR/2001/REC-SVG-20010904/DTD/svg10.dtd">
<svg version="1.0" xmlns="http://www.w3.org/2000/svg"
 width="610.000000pt" height="610.000000pt" viewBox="0 0 610.000000 610.000000"
 preserveAspectRatio="xMidYMid meet">
<metadata>
Created by potrace 1.11, written by Peter Selinger 2001-2013
</metadata>
<g transform="translate(0.000000,610.000000) scale(0.100000,-0.100000)"
fill="#000000" stroke="none">
<path d="M2900 5143 c-327 -33 -615 -134 -880 -307 -487 -319 -800 -837 -860
-1425 -5 -57 -10 -250 -10 -430 l0 -326 -45 -24 c-91 -48 -189 -181 -214 -292
-14 -60 -14 -475 0 -541 39 -182 194 -329 379 -358 36 -5 122 -10 192 -10
l126 0 30 -52 c132 -235 450 -283 645 -99 106 101 137 193 137 413 l0 148 103
0 102 0 89 -261 c49 -143 97 -271 107 -283 10 -13 30 -26 43 -28 31 -6 82 15
94 39 5 10 58 237 117 506 60 268 111 485 114 482 3 -3 38 -97 78 -208 53
-148 79 -208 98 -224 25 -22 34 -23 206 -23 l179 0 0 -141 c0 -173 17 -256 69
-336 120 -186 343 -249 539 -152 71 35 148 108 182 173 l24 44 170 4 c186 5
244 19 331 78 54 37 129 118 153 166 46 91 52 135 52 389 0 254 -6 298 -52
389 -27 54 -103 132 -165 173 l-53 34 0 340 c0 368 -8 473 -46 648 -178 799
-851 1402 -1666 1490 -91 10 -289 12 -368 4z m462 -192 c385 -66 751 -271
1006 -561 208 -237 356 -542 413 -851 18 -98 22 -166 26 -476 l5 -363 -121 0
-121 0 -1 48 c0 26 -4 191 -9 367 -7 262 -12 338 -29 417 -129 603 -600 1061
-1206 1174 -136 26 -382 26 -520 0 -268 -49 -530 -177 -723 -351 -162 -145
-265 -282 -357 -470 -125 -256 -155 -421 -155 -850 0 -143 -3 -277 -6 -297
l-7 -38 -118 0 -119 0 0 268 c0 308 11 469 40 614 151 743 766 1301 1531 1387
118 14 333 5 471 -18z m-40 -422 c251 -50 464 -160 649 -337 204 -194 329
-418 390 -700 16 -78 22 -146 26 -344 3 -137 3 -248 -1 -248 -4 0 -28 11 -55
24 -239 121 -541 -33 -591 -303 -5 -29 -10 -179 -10 -333 l0 -279 -137 3 -136
3 -117 324 c-128 356 -141 379 -204 367 -62 -13 -62 -14 -177 -532 -60 -268
-111 -489 -113 -491 -2 -2 -25 60 -51 138 -66 196 -57 189 -245 189 l-150 0 0
288 c0 313 -6 360 -57 454 -35 64 -120 143 -187 174 -120 55 -242 53 -358 -4
l-58 -29 0 157 c0 424 59 661 226 912 72 109 219 266 314 335 304 221 679 305
1042 232z m-1237 -1763 c58 -27 84 -53 117 -116 l23 -45 3 -503 c3 -552 1
-582 -51 -659 -112 -166 -374 -122 -432 71 -23 75 -22 1029 0 1104 43 143 203
213 340 148z m2146 14 c47 -13 114 -72 142 -124 22 -41 22 -46 25 -570 2 -469
1 -534 -14 -578 -57 -172 -276 -225 -403 -97 -73 72 -71 52 -71 652 0 460 2
543 15 574 51 121 175 179 306 143z m-2671 -710 l0 -460 -85 0 -85 0 0 460 0
460 85 0 85 0 0 -460z m3180 -5 l0 -455 -85 0 -85 0 0 455 0 455 85 0 85 0 0
-455z m-3520 0 c0 -345 -2 -425 -13 -425 -27 0 -97 72 -124 128 l-28 57 0 240
0 240 28 57 c27 56 97 128 124 128 11 0 13 -80 13 -425z m3759 389 c23 -20 54
-59 69 -88 l27 -51 0 -250 0 -250 -30 -54 c-27 -48 -97 -121 -117 -121 -4 0
-8 191 -8 425 0 234 4 425 8 425 5 0 27 -16 51 -36z"/>
<path d="M3932 3313 c-17 -6 -42 -57 -42 -83 0 -31 44 -70 79 -70 43 0 60 9
77 42 36 70 -37 142 -114 111z"/>
</g>
</svg>
